Normalized EMG Linear Envelopes
nRows=214
nColumns=4

endheader
time	 med_gas_r	  soleus_r	 tib_ant_r	
2.0291	  0.069548	  0.113186	  0.012034	
2.06237	  0.069941	  0.107911	  0.011853	
2.09563	  0.070563	  0.102718	  0.011660	
2.1289	  0.071584	  0.097800	  0.011464	
2.16216	  0.072978	  0.093372	  0.011264	
2.19542	  0.074496	  0.089616	  0.011050	
2.22869	  0.075723	  0.086685	  0.010811	
2.26195	  0.076261	  0.084706	  0.010552	
2.29522	  0.075938	  0.083731	  0.010299	
2.32848	  0.074896	  0.083683	  0.010087	
2.36174	  0.073475	  0.084409	  0.009945	
2.39501	  0.072052	  0.085824	  0.009892	
2.42827	  0.070960	  0.088015	  0.009943	
2.46154	  0.070501	  0.091149	  0.010105	
2.4948	  0.070912	  0.095236	  0.010370	
2.52806	  0.072237	  0.099954	  0.010703	
2.56133	  0.074201	  0.104683	  0.011051	
2.59459	  0.076271	  0.108714	  0.011353	
2.62786	  0.077872	  0.111514	  0.011563	
2.66112	  0.078625	  0.112870	  0.011657	
2.69438	  0.078427	  0.112889	  0.011634	
2.72765	  0.077389	  0.111857	  0.011508	
2.76091	  0.075711	  0.110088	  0.011313	
2.79418	  0.073631	  0.107834	  0.011093	
2.82744	  0.071436	  0.105289	  0.010898	
2.8607	  0.069477	  0.102621	  0.010769	
2.89397	  0.068119	  0.099975	  0.010728	
2.92723	  0.067609	  0.097446	  0.010774	
2.9605	  0.067942	  0.095104	  0.010883	
2.99376	  0.068844	  0.093040	  0.011014	
3.02702	  0.069898	  0.091434	  0.011115	
3.06029	  0.070722	  0.090550	  0.011143	
3.09355	  0.071089	  0.090651	  0.011085	
3.12682	  0.070896	  0.091839	  0.010962	
3.16008	  0.070092	  0.093901	  0.010822	
3.19334	  0.068646	  0.096299	  0.010709	
3.22661	  0.066597	  0.098332	  0.010634	
3.25987	  0.064134	  0.099388	  0.010571	
3.29314	  0.061603	  0.099155	  0.010475	
3.3264	  0.059435	  0.097680	  0.010308	
3.35966	  0.058009	  0.095306	  0.010067	
3.39293	  0.057545	  0.092545	  0.009782	
3.42619	  0.058078	  0.089940	  0.009506	
3.45946	  0.059508	  0.087938	  0.009292	
3.49272	  0.061683	  0.086806	  0.009178	
3.52598	  0.064433	  0.086577	  0.009175	
3.55925	  0.067551	  0.087060	  0.009267	
3.59251	  0.070769	  0.087901	  0.009415	
3.62578	  0.073775	  0.088715	  0.009579	
3.65904	  0.076255	  0.089226	  0.009729	
3.6923	  0.077928	  0.089346	  0.009862	
3.72557	  0.078566	  0.089154	  0.009989	
3.75883	  0.078024	  0.088819	  0.010122	
3.7921	  0.076316	  0.088530	  0.010261	
3.82536	  0.073673	  0.088482	  0.010395	
3.85862	  0.070517	  0.088867	  0.010510	
3.89189	  0.067353	  0.089842	  0.010601	
3.92515	  0.064602	  0.091472	  0.010672	
3.95842	  0.062488	  0.093690	  0.010728	
3.99168	  0.061011	  0.096345	  0.010772	
4.02494	  0.060035	  0.099269	  0.010812	
4.05821	  0.059433	  0.102293	  0.010858	
4.09147	  0.059209	  0.105149	  0.010925	
4.12474	  0.059529	  0.107391	  0.011027	
4.158	  0.060637	  0.108488	  0.011171	
4.19126	  0.062732	  0.108118	  0.011356	
4.22453	  0.065897	  0.106433	  0.011567	
4.25779	  0.070140	  0.104069	  0.011788	
4.29106	  0.075479	  0.101868	  0.012009	
4.32432	  0.081946	  0.100542	  0.012246	
4.35758	  0.089424	  0.100486	  0.012532	
4.39085	  0.097450	  0.101786	  0.012911	
4.42411	  0.105199	  0.104269	  0.013426	
4.45738	  0.111708	  0.107515	  0.014122	
4.49064	  0.116234	  0.110916	  0.015054	
4.5239	  0.118527	  0.113861	  0.016318	
4.55717	  0.118912	  0.115995	  0.018098	
4.59043	  0.118157	  0.117335	  0.020644	
4.6237	  0.117152	  0.118170	  0.024129	
4.65696	  0.116556	  0.118873	  0.028421	
4.69022	  0.116631	  0.119859	  0.032974	
4.72349	  0.117366	  0.121692	  0.037075	
4.75675	  0.118644	  0.125077	  0.040375	
4.79002	  0.120272	  0.130584	  0.043290	
4.82328	  0.121962	  0.138236	  0.046862	
4.85654	  0.123429	  0.147372	  0.052135	
4.88981	  0.124594	  0.156956	  0.059516	
4.92307	  0.125668	  0.166098	  0.068552	
4.95634	  0.127043	  0.174341	  0.078153	
4.9896	  0.129095	  0.181529	  0.087047	
5.02286	  0.132004	  0.187547	  0.094271	
5.05613	  0.135586	  0.192284	  0.099574	
5.08939	  0.139253	  0.195826	  0.103473	
5.12266	  0.142212	  0.198582	  0.106802	
5.15592	  0.143845	  0.201130	  0.110088	
5.18918	  0.144007	  0.203904	  0.113354	
5.22245	  0.142986	  0.206981	  0.116605	
5.25571	  0.141225	  0.210129	  0.120419	
5.28898	  0.139117	  0.213048	  0.125877	
5.32224	  0.136997	  0.215627	  0.133812	
5.3555	  0.135235	  0.218025	  0.144096	
5.38877	  0.134203	  0.220555	  0.155610	
5.42203	  0.134132	  0.223471	  0.166827	
5.4553	  0.134966	  0.226827	  0.176475	
5.48856	  0.136349	  0.230483	  0.183929	
5.52182	  0.137796	  0.234251	  0.189230	
5.55509	  0.138952	  0.238010	  0.192713	
5.58835	  0.139799	  0.241691	  0.194419	
5.62162	  0.140660	  0.245197	  0.193800	
5.65488	  0.142023	  0.248446	  0.190113	
5.68814	  0.144272	  0.251482	  0.183247	
5.72141	  0.147484	  0.254407	  0.174209	
5.75467	  0.151389	  0.257092	  0.164781	
5.78794	  0.155518	  0.258997	  0.156719	
5.8212	  0.159424	  0.259466	  0.151158	
5.85446	  0.162853	  0.258337	  0.148551	
5.88773	  0.165771	  0.256289	  0.148964	
5.92099	  0.168264	  0.254549	  0.152366	
5.95426	  0.170379	  0.254242	  0.158652	
5.98752	  0.172016	  0.255981	  0.167437	
6.02078	  0.172980	  0.259946	  0.177870	
6.05405	  0.173170	  0.266108	  0.188789	
6.08731	  0.172761	  0.274228	  0.199090	
6.12058	  0.172190	  0.283671	  0.207945	
6.15384	  0.171918	  0.293447	  0.214767	
6.1871	  0.172147	  0.302646	  0.219269	
6.22037	  0.172760	  0.310894	  0.221771	
6.25363	  0.173475	  0.318376	  0.223372	
6.2869	  0.174042	  0.325403	  0.225600	
6.32016	  0.174289	  0.332003	  0.229795	
6.35342	  0.174072	  0.337903	  0.236837	
6.38669	  0.173253	  0.342899	  0.247377	
6.41995	  0.171742	  0.347245	  0.262046	
6.45322	  0.169547	  0.351775	  0.281148	
6.48648	  0.166804	  0.357733	  0.304037	
6.51974	  0.163811	  0.366412	  0.328941	
6.55301	  0.161031	  0.378661	  0.353652	
6.58627	  0.158988	  0.394415	  0.376531	
6.61954	  0.158063	  0.412576	  0.396829	
6.6528	  0.158368	  0.431431	  0.414114	
6.68606	  0.159799	  0.449251	  0.427631	
6.71933	  0.162181	  0.464517	  0.436422	
6.75259	  0.165328	  0.475764	  0.440056	
6.78586	  0.168930	  0.481642	  0.438994	
6.81912	  0.172472	  0.481367	  0.434153	
6.85238	  0.175342	  0.475068	  0.426215	
6.88565	  0.177121	  0.463660	  0.415546	
6.91891	  0.177828	  0.448601	  0.402868	
6.95218	  0.177913	  0.431872	  0.389898	
6.98544	  0.177988	  0.415861	  0.379131	
7.0187	  0.178473	  0.402739	  0.372764	
7.05197	  0.179426	  0.393674	  0.371573	
7.08523	  0.180699	  0.388683	  0.374586	
7.1185	  0.182276	  0.387295	  0.379726	
7.15176	  0.184466	  0.389313	  0.384961	
7.18502	  0.187741	  0.394900	  0.389322	
7.21829	  0.192312	  0.404006	  0.393265	
7.25155	  0.197803	  0.415812	  0.398039	
7.28482	  0.203265	  0.428821	  0.404333	
7.31808	  0.207535	  0.441541	  0.411159	
7.35134	  0.209733	  0.453167	  0.416110	
7.38461	  0.209635	  0.463670	  0.416991	
7.41787	  0.207753	  0.473196	  0.413463	
7.45114	  0.205023	  0.481312	  0.407178	
7.4844	  0.202255	  0.486771	  0.400384	
7.51766	  0.199699	  0.488066	  0.394411	
7.55093	  0.197055	  0.484289	  0.389317	
7.58419	  0.193860	  0.475647	  0.384641	
7.61746	  0.189912	  0.463416	  0.380360	
7.65072	  0.185401	  0.449554	  0.377300	
7.68398	  0.180770	  0.436213	  0.376857	
7.71725	  0.176524	  0.425225	  0.380314	
7.75051	  0.173133	  0.417724	  0.388181	
7.78378	  0.171004	  0.414106	  0.399903	
7.81704	  0.170432	  0.414361	  0.413985	
7.8503	  0.171538	  0.418335	  0.428345	
7.88357	  0.174267	  0.425565	  0.440709	
7.91683	  0.178484	  0.434832	  0.449092	
7.9501	  0.184127	  0.444124	  0.452372	
7.98336	  0.191311	  0.451436	  0.450720	
8.01662	  0.200405	  0.455858	  0.445491	
8.04989	  0.212093	  0.457898	  0.438519	
8.08315	  0.227331	  0.458745	  0.431286	
8.11642	  0.246923	  0.459403	  0.424548	
8.14968	  0.270732	  0.460569	  0.418495	
8.18294	  0.297162	  0.462962	  0.413120	
8.21621	  0.323653	  0.467174	  0.408490	
8.24947	  0.348042	  0.472916	  0.404878	
8.28274	  0.369614	  0.478606	  0.402769	
8.316	  0.388917	  0.482027	  0.402779	
8.34926	  0.406787	  0.481566	  0.405570	
8.38253	  0.423730	  0.476996	  0.411818	
8.41579	  0.440030	  0.469309	  0.422135	
8.44906	  0.456015	  0.460012	  0.436795	
8.48232	  0.472013	  0.450511	  0.455309	
8.51558	  0.488166	  0.441883	  0.476035	
8.54885	  0.504254	  0.434991	  0.496119	
8.58211	  0.519451	  0.430666	  0.511961	
8.61538	  0.532122	  0.429665	  0.520257	
8.64864	  0.540263	  0.432406	  0.519235	
8.6819	  0.542884	  0.438803	  0.509434	
8.71517	  0.541485	  0.448402	  0.493552	
8.74843	  0.539959	  0.460478	  0.475393	
8.7817	  0.542320	  0.473673	  0.458453	
8.81496	  0.549812	  0.485572	  0.444837	
8.84822	  0.559951	  0.493224	  0.435023	
8.88149	  0.568595	  0.494839	  0.428429	
8.91475	  0.573418	  0.491339	  0.424226	
8.94802	  0.575805	  0.486092	  0.421851	
8.98128	  0.579483	  0.482777	  0.421042	
9.01454	  0.587111	  0.483047	  0.421653	
9.04781	  0.597885	  0.485803	  0.423547	
9.08107	  0.608325	  0.488352	  0.426671	
9.11434	  0.615576	  0.488287	  0.431180	
